<svg width="39" height="18" viewBox="0 0 39 18" fill="none" xmlns="http://www.w3.org/2000/svg">
<g clip-path="url(#clip0_3_223)">
<path d="M38.2371 1.56527H0.762235C0.312713 1.56527 -0.0522461 1.19908 -0.0522461 0.747783C-0.0522461 0.296484 0.31272 -0.0697021 0.762514 -0.0697021H38.2374C38.6853 -0.0694284 39.0519 0.296758 39.0519 0.747783C39.0519 1.19908 38.6853 1.56527 38.2371 1.56527Z" fill="white" fill-opacity="0.89"/>
<path d="M38.2371 9.73946H0.762235C0.312713 9.73946 -0.0522461 9.37328 -0.0522461 8.92198C-0.0522461 8.47068 0.31272 8.10449 0.762514 8.10449H38.2374C38.6856 8.10449 39.0522 8.47068 39.0522 8.92198C39.0519 9.37328 38.6853 9.73946 38.2371 9.73946Z" fill="white" fill-opacity="0.89"/>
<path d="M38.2371 17.9129H0.762235C0.312713 17.9129 -0.0522461 17.5451 -0.0522461 17.0957C-0.0522461 16.646 0.31272 16.2782 0.762514 16.2782H38.2374C38.6856 16.2782 39.0522 16.646 39.0522 17.0957C39.0519 17.5451 38.6853 17.9129 38.2371 17.9129Z" fill="white" fill-opacity="0.89"/>
</g>
<defs>
<clipPath id="clip0_3_223">
<rect width="39" height="18" fill="white"/>
</clipPath>
</defs>
</svg>
