<svg xmlns="http://www.w3.org/2000/svg" xmlns:xlink="http://www.w3.org/1999/xlink" width="53.333" height="53.333" viewBox="0 0 40 40"><defs><symbol id="a" overflow="visible"><path d="M.469-.031C.445-.02.422-.008.39 0S.332.016.312.016A.301.301 0 0 1 .11-.047C.055-.097.031-.164.031-.25A.27.27 0 0 1 .11-.453a.274.274 0 0 1 .204-.078c.019 0 .046.008.078.015.03.012.054.024.078.032v.109a.116.116 0 0 0-.08-.031C.367-.414.344-.422.312-.422a.148.148 0 0 0-.109.047C.18-.352.172-.312.172-.25c0 .055.008.094.031.125a.172.172 0 0 0 .11.031H.39c.03-.008.054-.02.078-.031z"/></symbol><symbol id="b" overflow="visible"><path d="M.344-.266A.088.088 0 0 0 .313-.28C.3-.29.288-.297.28-.297a.11.11 0 0 0-.078.031.213.213 0 0 0-.016.094V0h-.14v-.375h.14v.063a.088.088 0 0 1 .047-.063.213.213 0 0 1 .078-.016h.032z"/></symbol><symbol id="c" overflow="visible"><path d="M.438-.203v.047H.156c0 .031.004.054.016.062.02.012.05.016.094.016h.062a.264.264 0 0 0 .094-.047v.11A.303.303 0 0 0 .328 0a.273.273 0 0 1-.25-.031.252.252 0 0 1-.047-.156c0-.062.016-.11.047-.141a.217.217 0 0 1 .156-.063c.062 0 .11.024.141.063.04.031.062.074.062.125zM.311-.234c0-.02-.011-.036-.03-.047C.27-.301.253-.312.233-.312c-.023 0-.043.011-.062.03C.16-.27.156-.253.156-.233Z"/></symbol><symbol id="d" overflow="visible"><path d="M.234-.172a.158.158 0 0 0-.062.016.044.044 0 0 0-.016.031c0 .023.004.04.016.047h.031c.031 0 .05-.004.063-.016.02-.02.03-.039.03-.062v-.016Zm.188-.047V0H.297v-.047A.2.2 0 0 1 .234 0C.211.008.188.016.156.016a.17.17 0 0 1-.093-.032C.039-.036.03-.07.03-.125c0-.04.016-.066.047-.078a.268.268 0 0 1 .14-.031h.079V-.25c0-.02-.012-.035-.031-.047a.105.105 0 0 0-.062-.016.21.21 0 0 0-.078.016c-.023 0-.043.008-.063.016v-.094h.079c.03-.008.054-.016.078-.016.07 0 .125.016.156.047.031.024.047.063.047.125z"/></symbol><symbol id="e" overflow="visible"><path d="M.203-.484v.109h.11v.078h-.11v.203h.109V0H.203c-.055 0-.09-.008-.11-.031-.023-.02-.03-.051-.03-.094v-.172H.015v-.078h.046v-.11z"/></symbol><symbol id="f" overflow="visible"><path d="M.313-.328v-.203h.124V0H.314v-.047A.091.091 0 0 1 .266 0C.242.008.223.016.203.016a.165.165 0 0 1-.125-.047.252.252 0 0 1-.047-.156c0-.062.016-.11.047-.141a.152.152 0 0 1 .125-.063c.02 0 .04.008.063.016.02.012.035.027.046.047zm-.079.25c.02 0 .036-.004.047-.016.02-.02.031-.05.031-.093a.116.116 0 0 0-.03-.079C.27-.296.253-.312.233-.312c-.023 0-.043.015-.062.046a.165.165 0 0 0-.016.079c0 .042.004.074.016.093.02.012.039.016.062.016z"/></symbol><symbol id="g" overflow="visible"><path d="M.266-.078c.03 0 .05-.004.062-.016a.255.255 0 0 0 .016-.093.231.231 0 0 0-.016-.079C.316-.296.297-.312.266-.312S.21-.297.203-.267a.164.164 0 0 0-.016.079.15.15 0 0 0 .016.078c.008.023.031.03.063.03zm-.079-.25a.091.091 0 0 1 .047-.047.213.213 0 0 1 .078-.016c.04 0 .079.024.11.063.031.031.047.078.047.14a.258.258 0 0 1-.047.158.154.154 0 0 1-.11.047A.212.212 0 0 1 .234 0a.07.07 0 0 1-.047-.047V0h-.14v-.531h.14z"/></symbol><symbol id="h" overflow="visible"><path d="M.016-.375h.109l.11.25.078-.25h.14L.281.031a.263.263 0 0 1-.047.094.143.143 0 0 1-.093.031H.063V.063h.046C.13.063.141.054.141.046.148.047.16.035.17.016Z"/></symbol><symbol id="i" overflow="visible"><path d="M0-.516h.469v.094H.313V0H.172v-.422H0Z"/></symbol><symbol id="j" overflow="visible"><path d="M.453-.234V0h-.14v-.266A.017.017 0 0 0 .296-.28C.285-.29.273-.297.266-.297c-.024 0-.043.012-.063.031a.165.165 0 0 0-.016.078V0h-.14v-.375h.14v.047a.091.091 0 0 1 .047-.047.213.213 0 0 1 .078-.016c.04 0 .07.016.094.047.031.024.047.059.047.11z"/></symbol><symbol id="k" overflow="visible"><path d="M.063-.516h.14l.188.36v-.36h.14V0H.375L.187-.344V0H.062Z"/></symbol><symbol id="l" overflow="visible"><path d="M.36-.375v.11a.179.179 0 0 0-.094-.032C.242-.305.223-.312.203-.312c-.023 0-.039.007-.047.015-.011 0-.015.012-.015.031 0 0 .004.008.015.016.008.012.024.016.047.016h.031c.051 0 .086.011.11.03.02.024.031.056.031.095 0 .043-.016.074-.047.093C.305.004.266.016.203.016A.212.212 0 0 1 .125 0a.212.212 0 0 1-.078-.016v-.093c.02.011.039.023.062.03H.25c.008-.007.016-.019.016-.03A.017.017 0 0 0 .25-.125C.238-.133.223-.145.203-.156H.188c-.063 0-.106-.008-.125-.031C.039-.207.03-.234.03-.266a.11.11 0 0 1 .047-.093.227.227 0 0 1 .125-.032c.02 0 .04.008.063.016h.093z"/></symbol><symbol id="m" overflow="visible"><path d="M.047-.531h.14v.297l.125-.141h.141l-.187.172L.484 0H.328l-.14-.156V0H.046Z"/></symbol><symbol id="n" overflow="visible"><path d="M.234-.313C.211-.313.191-.3.172-.28a.213.213 0 0 0-.016.094c0 .042.004.074.016.093.02.012.039.016.062.016.032 0 .051-.004.063-.016.02-.02.031-.05.031-.093 0-.04-.012-.07-.031-.094C.285-.301.266-.312.234-.312Zm0-.078c.07 0 .125.024.157.063a.17.17 0 0 1 .062.14.225.225 0 0 1-.062.158C.359 0 .305.016.234.016a.248.248 0 0 1-.156-.047.253.253 0 0 1-.047-.157c0-.063.016-.109.047-.14a.218.218 0 0 1 .156-.063z"/></symbol><symbol id="o" overflow="visible"><path d="M.313-.531v.078h-.08c-.011 0-.023.008-.03.016v.062h.109v.078h-.11V0H.078v-.297H.016v-.078h.062v-.031c0-.04.008-.07.031-.094.02-.02.055-.031.11-.031z"/></symbol><symbol id="p" overflow="visible"><path d="M.422-.313a.091.091 0 0 1 .047-.046c.02-.02.039-.032.062-.032.04 0 .07.016.094.047.031.024.047.059.047.11V0H.547v-.219A.11.11 0 0 0 .53-.28C.531-.29.52-.297.5-.297c-.023 0-.043.012-.062.031a.165.165 0 0 0-.016.079V0h-.11v-.203a.156.156 0 0 0-.015-.078.084.084 0 0 0-.047-.016.047.047 0 0 0-.047.031.165.165 0 0 0-.016.079V0h-.14v-.375h.14v.047a.091.091 0 0 1 .047-.047.167.167 0 0 1 .063-.016c.031 0 .05.012.062.032.02.011.04.027.063.047z"/></symbol><symbol id="q" overflow="visible"><path d="M.453-.234V0h-.14v-.266A.017.017 0 0 0 .296-.28C.285-.29.273-.297.266-.297c-.024 0-.043.012-.063.031a.165.165 0 0 0-.016.078V0h-.14v-.531h.14v.203a.091.091 0 0 1 .047-.047.213.213 0 0 1 .078-.016c.04 0 .07.016.094.047.031.024.047.059.047.11z"/></symbol><symbol id="r" overflow="visible"><path d="M.047-.156v-.219h.125v.234c.008.012.016.024.016.032a.047.047 0 0 0 .015.015h.031c.02 0 .036-.004.047-.015.02-.02.031-.051.031-.094v-.172h.126V0H.311v-.047A.2.2 0 0 1 .25 0a.11.11 0 0 1-.063.016.148.148 0 0 1-.109-.047C.055-.063.047-.101.047-.156Z"/></symbol><symbol id="s" overflow="visible"><path d="M.063-.516H.28c.063 0 .11.016.14.047.04.032.063.074.063.125a.152.152 0 0 1-.062.125c-.031.032-.078.047-.14.047H.202V0h-.14zm.14.094v.156h.063c.03 0 .05-.004.062-.015a.164.164 0 0 0 .016-.063.084.084 0 0 0-.016-.047C.316-.41.297-.42.266-.42Z"/></symbol><symbol id="t" overflow="visible"><path d="M.047-.375h.14v.36a.17.17 0 0 1-.046.124C.117.141.082.156.03.156h-.047V.063H0C.02.063.031.055.031.047.04.047.047.023.047-.016zm0-.156h.14v.094h-.14z"/></symbol><symbol id="u" overflow="visible"><path d="M.375-.375v.11a.311.311 0 0 1-.063-.032.084.084 0 0 0-.046-.015.09.09 0 0 0-.079.046.1.1 0 0 0-.03.079c0 .03.007.058.03.078.02.023.047.03.079.03h.046c.02-.007.04-.019.063-.03v.093A.134.134 0 0 1 .312 0C.29.008.27.016.25.016a.273.273 0 0 1-.172-.047.252.252 0 0 1-.047-.156c0-.062.016-.11.047-.141A.237.237 0 0 1 .25-.391c.02 0 .04.008.063.016z"/></symbol></defs><g transform="translate(-3.797 -1.742) scale(.07106)"><path d="M178.997 568.221h218.435c36.141 0 65.53-29.388 65.53-65.53V196.883c0-36.14-29.389-65.529-65.53-65.529H178.997c-36.141 0-65.53 29.388-65.53 65.53v305.809c0 36.14 29.389 65.529 65.53 65.529zm-21.847-371.34c0-12.034 9.79-21.84 21.841-21.84h218.435c12.051 0 21.841 9.806 21.841 21.84v305.81c0 12.033-9.79 21.84-21.84 21.84H178.99c-12.05 0-21.84-9.807-21.84-21.84z" style="fill:#000;fill-opacity:.882353;stroke-width:1.41841"/><path d="M550.337 327.942V109.507c0-36.141-29.388-65.53-65.53-65.53l-218.435-.005c-12.05 0-21.84 9.79-21.84 21.84 0 12.051 9.79 21.841 21.84 21.841h218.436c12.05 0 21.84 9.807 21.84 21.841v218.435c0 12.051 9.79 21.841 21.841 21.841 12.062.011 21.852-9.778 21.852-21.83z" style="fill:#000;fill-opacity:.882353;stroke-width:1.41841"/><use xlink:href="#a" x="70" y="562.102"/><use xlink:href="#b" x="70.516" y="562.102"/><use xlink:href="#c" x="70.859" y="562.102"/><use xlink:href="#d" x="71.332" y="562.102"/><use xlink:href="#e" x="71.805" y="562.102"/><use xlink:href="#c" x="72.141" y="562.102"/><use xlink:href="#f" x="72.617" y="562.102"/><use xlink:href="#g" x="73.359" y="562.102"/><use xlink:href="#h" x="73.859" y="562.102"/><use xlink:href="#i" x="74.563" y="562.102"/><use xlink:href="#d" x="75.039" y="562.102"/><use xlink:href="#e" x="75.512" y="562.102"/><use xlink:href="#h" x="75.848" y="562.102"/><use xlink:href="#d" x="76.301" y="562.102"/><use xlink:href="#j" x="76.773" y="562.102"/><use xlink:href="#d" x="77.273" y="562.102"/><use xlink:href="#k" x="77.988" y="562.102"/><use xlink:href="#c" x="78.574" y="562.102"/><use xlink:href="#l" x="79.051" y="562.102"/><use xlink:href="#e" x="79.465" y="562.102"/><use xlink:href="#c" x="79.801" y="562.102"/><use xlink:href="#b" x="80.277" y="562.102"/><use xlink:href="#c" x="80.621" y="562.102"/><use xlink:href="#j" x="81.094" y="562.102"/><use xlink:href="#m" x="81.594" y="562.102"/><use xlink:href="#n" x="82.059" y="562.102"/><use xlink:href="#o" x="70" y="562.801"/><use xlink:href="#b" x="70.305" y="562.801"/><use xlink:href="#n" x="70.648" y="562.801"/><use xlink:href="#p" x="71.129" y="562.801"/><use xlink:href="#e" x="72.105" y="562.801"/><use xlink:href="#q" x="72.438" y="562.801"/><use xlink:href="#c" x="72.938" y="562.801"/><use xlink:href="#k" x="73.656" y="562.801"/><use xlink:href="#n" x="74.242" y="562.801"/><use xlink:href="#r" x="74.723" y="562.801"/><use xlink:href="#j" x="75.219" y="562.801"/><use xlink:href="#s" x="75.961" y="562.801"/><use xlink:href="#b" x="76.477" y="562.801"/><use xlink:href="#n" x="76.82" y="562.801"/><use xlink:href="#t" x="77.301" y="562.801"/><use xlink:href="#c" x="77.543" y="562.801"/><use xlink:href="#u" x="78.016" y="562.801"/><use xlink:href="#e" x="78.43" y="562.801"/></g></svg>